jabodetabek
1
   106.3992415   -6.4554344
   106.4007998   -6.4509892
   106.4064379   -6.4519907
   106.4234341   -6.4473295
   106.4368434   -6.4466465
   106.4364861   -6.4428973
   106.4416544   -6.4390074
   106.4450963   -6.4338612
   106.4479024   -6.4335410
   106.4459861   -6.4301598
   106.4491119   -6.4250513
   106.4440791   -6.4244985
   106.4425484   -6.4210647
   106.4446534   -6.4179014
   106.4516449   -6.4169289
   106.4517169   -6.4154705
   106.4490768   -6.4149624
   106.4421061   -6.4074761
   106.4377809   -6.4057783
   106.4361265   -6.4005909
   106.4370336   -6.3979557
   106.4322008   -6.3945902
   106.4345659   -6.3879268
   106.4320817   -6.3858803
   106.4299321   -6.3792697
   106.4254932   -6.3770234
   106.4272244   -6.3732106
   106.4265015   -6.3688211
   106.4291399   -6.3655065
   106.4278140   -6.3629574
   106.4290779   -6.3606415
   106.4262936   -6.3573889
   106.4234524   -6.3494553
   106.4257549   -6.3461297
   106.4291567   -6.3462140
   106.4406211   -6.3244205
   106.4630677   -6.3073985
   106.4656461   -6.3030068
   106.4700333   -6.3016482
   106.4775776   -6.3074208
   106.4824302   -6.3194468
   106.4856823   -6.3228679
   106.4863348   -6.3290171
   106.4844529   -6.3343040
   106.4853865   -6.3434359
   106.4828830   -6.3458646
   106.4790766   -6.3460202
   106.4784743   -6.3494124
   106.4983956   -6.3538525
   106.5006451   -6.3453149
   106.5025312   -6.3441796
   106.5117330   -6.3532088
   106.5187625   -6.3523708
   106.5208886   -6.3485592
   106.5263475   -6.3463233
   106.5284116   -6.3413814
   106.5231475   -6.3403979
   106.5213664   -6.3352024
   106.5137003   -6.3337209
   106.5108212   -6.3299822
   106.5113560   -6.3252295
   106.5150792   -6.3223361
   106.5202247   -6.3239394
   106.5270857   -6.3226443
   106.5357364   -6.3296761
   106.5388933   -6.3290511
   106.5447865   -6.3318269
   106.5495511   -6.3304989
   106.5628667   -6.3368462
   106.5663457   -6.3354786
   106.5782528   -6.3368130
   106.5848898   -6.3443669
   106.5901266   -6.3462740
   106.5920655   -6.3519472
   106.5907144   -6.3544970
   106.5950514   -6.3588431
   106.5981157   -6.3567066
   106.6041101   -6.3599244
   106.6288288   -6.3588749
   106.6500606   -6.3601626
   106.6549122   -6.3583518
   106.6536333   -6.3534760
   106.6456575   -6.3453640
   106.6448310   -6.3422878
   106.6457605   -6.3386498
   106.6531704   -6.3338755
   106.6577528   -6.3276814
   106.6558987   -6.3252098
   106.6567141   -6.3186883
   106.6534777   -6.3158582
   106.6568828   -6.3086364
   106.6517155   -6.2990378
   106.6523614   -6.2928504
   106.6556555   -6.2908509
   106.6546429   -6.2879629
   106.6478004   -6.2847400
   106.6442860   -6.2787917
   106.6446700   -6.2741929
   106.6497624   -6.2704335
   106.6456381   -6.2663344
   106.6469872   -6.2611573
   106.6419599   -6.2478300
   106.6424529   -6.2433950
   106.6348105   -6.2375483
   106.6367547   -6.2286557
   106.6887098   -6.2283331
   106.6936782   -6.2314311
   106.6901473   -6.2372536
   106.6918545   -6.2409153
   106.6986898   -6.2429717
   106.6984939   -6.2496683
   106.7022996   -6.2525382
   106.7067633   -6.2488183
   106.7235706   -6.2488855
   106.7291827   -6.2509532
   106.7381939   -6.2489938
   106.7459364   -6.2496493
   106.7440519   -6.2384162
   106.7421347   -6.2371714
   106.7418468   -6.2315412
   106.7400032   -6.2288308
   106.7326338   -6.2259025
   106.7170207   -6.2260305
   106.7153884   -6.2248757
   106.7150306   -6.2194147
   106.7221040   -6.2028657
   106.7228106   -6.1941714
   106.7187007   -6.1940146
   106.7171096   -6.1890492
   106.6875637   -6.1738231
   106.6878942   -6.1619789
   106.6858409   -6.1603755
   106.6842118   -6.1431205
   106.6890456   -6.1373368
   106.6858866   -6.1252093
   106.6877269   -6.1206238
   106.6870298   -6.1140539
   106.6882678   -6.1123883
   106.6949611   -6.1108916
   106.6868250   -6.1068100
   106.6852351   -6.0971360
   106.6865101   -6.0951386
   106.7105242   -6.0932560
   106.7241251   -6.0862317
   106.7282221   -6.0884148
   106.7340818   -6.0958990
   106.7408585   -6.0993497
   106.7470486   -6.0988918
   106.7513822   -6.1013077
   106.7573365   -6.1018627
   106.7660367   -6.1006017
   106.7728496   -6.1031402
   106.7768388   -6.1019081
   106.7803186   -6.1055022
   106.7843962   -6.1065889
   106.7894385   -6.1050659
   106.7877740   -6.1017236
   106.7894172   -6.0921226
   106.7944817   -6.0907706
   106.7990457   -6.0947002
   106.8028934   -6.0925789
   106.8053777   -6.0935131
   106.8087521   -6.1132127
   106.8112995   -6.1184681
   106.8148251   -6.1175121
   106.8162071   -6.1131632
   106.8206720   -6.1133094
   106.8250847   -6.1205134
   106.8286840   -6.1164971
   106.8319701   -6.1196135
   106.8431484   -6.1191354
   106.8610605   -6.1130382
   106.8632603   -6.1094310
   106.8768301   -6.0997804
   106.8773388   -6.0939675
   106.8813384   -6.0916556
   106.8879622   -6.0953961
   106.9058765   -6.0955079
   106.9076388   -6.0975761
   106.9191321   -6.0971304
   106.9212861   -6.0992510
   106.9258058   -6.0962759
   106.9326187   -6.0948404
   106.9374368   -6.0943478
   106.9415018   -6.0962692
   106.9551925   -6.0943237
   106.9612047   -6.0905486
   106.9886553   -6.0856357
   106.9935330   -6.0820170
   106.9976669   -6.0753410
   107.0013147   -6.0755110
   107.0060061   -6.0795407
   107.0136913   -6.0777193
   107.0072987   -6.0752102
   106.9994634   -6.0692940
   106.9966700   -6.0602435
   106.9900193   -6.0550354
   106.9898225   -6.0522264
   106.9874141   -6.0495687
   106.9889242   -6.0475684
   106.9958333   -6.0480854
   106.9983214   -6.0460072
   107.0036830   -6.0478648
   107.0049697   -6.0440168
   107.0027189   -6.0421081
   107.0037325   -6.0370511
   107.0109174   -6.0315722
   107.0134558   -6.0314899
   107.0132547   -6.0301944
   107.0087733   -6.0259134
   106.9920204   -6.0298366
   106.9900185   -6.0263357
   106.9917840   -6.0200515
   106.9907333   -6.0152203
   106.9888838   -6.0129357
   106.9838475   -6.0128127
   106.9824934   -6.0108890
   106.9884322   -6.0014729
   106.9947746   -6.0000699
   107.0008962   -6.0008091
   107.0051325   -5.9977269
   107.0103297   -5.9798748
   107.0146730   -5.9708093
   107.0138575   -5.9585673
   107.0077480   -5.9439175
   107.0056957   -5.9422410
   106.9929906   -5.9416695
   106.9892311   -5.9390987
   106.9889088   -5.9361014
   106.9924698   -5.9329786
   106.9985912   -5.9313547
   107.0146034   -5.9164136
   107.0235940   -5.9126065
   107.0315295   -5.9117891
   107.0393064   -5.9143655
   107.0443046   -5.9194659
   107.0705712   -5.9307673
   107.0853806   -5.9339093
   107.0945299   -5.9343796
   107.0993252   -5.9327806
   107.1015310   -5.9338334
   107.1022986   -5.9367250
   107.0998672   -5.9412579
   107.0965102   -5.9567923
   107.0991084   -5.9616575
   107.0918435   -5.9698486
   107.0929683   -5.9729672
   107.0901943   -5.9788354
   107.0918625   -5.9840030
   107.0873848   -5.9897562
   107.0902566   -5.9963009
   107.0867108   -6.0011894
   107.0941134   -6.0052027
   107.0950101   -6.0126628
   107.1008825   -6.0127426
   107.1034457   -6.0155294
   107.1031472   -6.0183008
   107.0980310   -6.0215744
   107.0956753   -6.0252183
   107.0996346   -6.0230667
   107.1057535   -6.0268735
   107.1126291   -6.0273858
   107.1149465   -6.0376320
   107.1204878   -6.0381348
   107.1226500   -6.0452661
   107.1267931   -6.0441243
   107.1295125   -6.0463206
   107.1295457   -6.0484072
   107.1263733   -6.0511941
   107.1276176   -6.0525878
   107.1342941   -6.0477738
   107.1374412   -6.0480987
   107.1389830   -6.0552012
   107.1428310   -6.0569067
   107.1423984   -6.0632252
   107.1447656   -6.0693975
   107.1513444   -6.0708131
   107.1557983   -6.0662072
   107.1602275   -6.0657633
   107.1731520   -6.0743684
   107.1771220   -6.0796860
   107.1822641   -6.0749244
   107.1863741   -6.0746829
   107.1900028   -6.0785140
   107.1889767   -6.0855233
   107.1903069   -6.0876243
   107.2033107   -6.0916892
   107.2220279   -6.1018858
   107.2302506   -6.1006329
   107.2371120   -6.1023690
   107.2428031   -6.0990321
   107.2476499   -6.0992836
   107.2501203   -6.1033292
   107.2498192   -6.1143696
   107.2619453   -6.1090839
   107.2660229   -6.1094607
   107.2712634   -6.1148705
   107.2722061   -6.1283896
   107.2781570   -6.1249156
   107.2827500   -6.1263490
   107.2834341   -6.1294658
   107.2816320   -6.1326713
   107.2849362   -6.1340628
   107.2859204   -6.1372354
   107.2836598   -6.1464527
   107.2847718   -6.1467928
   107.2866080   -6.1417405
   107.2895803   -6.1389371
   107.2928579   -6.1387668
   107.2945351   -6.1407469
   107.2901689   -6.1573489
   107.2822555   -6.1590640
   107.2805744   -6.1617076
   107.2818925   -6.1655821
   107.2812183   -6.1702680
   107.2876409   -6.1742190
   107.2889549   -6.1781478
   107.2879906   -6.1829605
   107.2920437   -6.1857397
   107.2940289   -6.1895004
   107.2926568   -6.1997316
   107.2969435   -6.1995668
   107.2986015   -6.2032410
   107.2956020   -6.2080703
   107.2945653   -6.2159042
   107.2920796   -6.2186898
   107.2740837   -6.2176991
   107.2761939   -6.2208841
   107.2816678   -6.2216846
   107.2856745   -6.2256882
   107.2834283   -6.2304054
   107.2737259   -6.2356044
   107.2798123   -6.2532664
   107.2788899   -6.2563637
   107.2755009   -6.2587383
   107.2779501   -6.2625859
   107.2780329   -6.2677131
   107.2679447   -6.2753349
   107.2675210   -6.2775765
   107.2699476   -6.2805657
   107.2686490   -6.2858796
   107.2570427   -6.2915481
   107.2561690   -6.2964501
   107.2535791   -6.2969700
   107.2497777   -6.2949809
   107.2492256   -6.2998183
   107.2460210   -6.3016064
   107.2413693   -6.2987497
   107.2386777   -6.2988601
   107.2413714   -6.3045212
   107.2378504   -6.3090759
   107.2343385   -6.3087324
   107.2334180   -6.3057622
   107.2297771   -6.3051592
   107.2279266   -6.3066658
   107.2295969   -6.3094545
   107.2269228   -6.3121171
   107.2254221   -6.3176733
   107.2265643   -6.3213776
   107.2243524   -6.3233790
   107.2201663   -6.3227809
   107.2210650   -6.3264901
   107.2185117   -6.3288721
   107.2256760   -6.3350009
   107.2284958   -6.3497980
   107.2234324   -6.3538413
   107.2169339   -6.3521603
   107.2150808   -6.3566148
   107.2170642   -6.3627744
   107.2069819   -6.3708353
   107.2071143   -6.3750133
   107.2090229   -6.3772153
   107.2104230   -6.3732987
   107.2136041   -6.3727236
   107.2156971   -6.3780120
   107.2204221   -6.3791645
   107.2234357   -6.3846156
   107.2218825   -6.3962129
   107.2241044   -6.4001222
   107.2230652   -6.4092455
   107.2143529   -6.4106766
   107.2148737   -6.4165944
   107.2128787   -6.4191028
   107.2046179   -6.4163060
   107.2075451   -6.4206583
   107.2052549   -6.4248070
   107.2087140   -6.4344320
   107.2063584   -6.4375975
   107.2123951   -6.4459021
   107.2131808   -6.4529418
   107.2172276   -6.4573308
   107.2187900   -6.4619310
   107.2161717   -6.4659729
   107.2090989   -6.4701579
   107.2065226   -6.4695011
   107.2009629   -6.4636706
   107.1987803   -6.4657269
   107.1913164   -6.4653992
   107.1906701   -6.4711079
   107.1848957   -6.4734894
   107.1820535   -6.4796445
   107.1786619   -6.4816904
   107.1742886   -6.4812287
   107.1762817   -6.4911881
   107.1717714   -6.4939343
   107.1717485   -6.4976340
   107.1682254   -6.4987450
   107.1666283   -6.5019110
   107.1665892   -6.5068942
   107.1695216   -6.5108355
   107.1709917   -6.5204254
   107.1784491   -6.5323679
   107.1807605   -6.5509442
   107.1858638   -6.5542659
   107.1873382   -6.5593448
   107.1913553   -6.5606711
   107.1948464   -6.5770329
   107.2086241   -6.5864586
   107.2215043   -6.5890121
   107.2259622   -6.5951332
   107.2291144   -6.6018003
   107.2273635   -6.6079784
   107.2297773   -6.6136003
   107.2273435   -6.6221378
   107.2242598   -6.6264983
   107.2152015   -6.6282624
   107.2169822   -6.6369744
   107.2132976   -6.6421984
   107.2102891   -6.6425872
   107.2051195   -6.6403832
   107.2002317   -6.6448403
   107.1954658   -6.6450985
   107.1892483   -6.6486532
   107.1863813   -6.6474895
   107.1789629   -6.6482048
   107.1711186   -6.6424288
   107.1700912   -6.6451911
   107.1655220   -6.6489941
   107.1605264   -6.6476366
   107.1587716   -6.6519503
   107.1538964   -6.6514570
   107.1524810   -6.6547306
   107.1535397   -6.6604318
   107.1516667   -6.6645086
   107.1421797   -6.6687690
   107.1389900   -6.6683045
   107.1350093   -6.6724219
   107.1292112   -6.6715531
   107.1208813   -6.6652781
   107.1137966   -6.6655020
   107.1100351   -6.6678975
   107.1046462   -6.6663886
   107.1021735   -6.6685008
   107.0971300   -6.6660398
   107.0887002   -6.6694526
   107.0749651   -6.6650897
   107.0682787   -6.6672071
   107.0648380   -6.6637951
   107.0497021   -6.6588009
   107.0469028   -6.6602360
   107.0437206   -6.6587815
   107.0413396   -6.6615860
   107.0360126   -6.6626258
   107.0336139   -6.6648757
   107.0239734   -6.6652367
   107.0161775   -6.6699462
   107.0108196   -6.6667500
   107.0070946   -6.6691094
   106.9961864   -6.6689692
   106.9948247   -6.6698975
   106.9954483   -6.6755204
   107.0032690   -6.6830038
   107.0059682   -6.6885735
   107.0017951   -6.6940700
   107.0028642   -6.6979767
   107.0003798   -6.7037008
   106.9935421   -6.7072435
   106.9922680   -6.7154783
   106.9888205   -6.7210935
   106.9903364   -6.7280951
   106.9866710   -6.7457419
   106.9834538   -6.7485797
   106.9792390   -6.7489323
   106.9697590   -6.7556442
   106.9663351   -6.7664857
   106.9663367   -6.7721167
   106.9637783   -6.7718637
   106.9607075   -6.7657957
   106.9573899   -6.7631937
   106.9475594   -6.7627297
   106.9358800   -6.7699537
   106.9277869   -6.7841545
   106.9210912   -6.7885753
   106.8994072   -6.7901713
   106.8966197   -6.7882687
   106.8867445   -6.7871967
   106.8825291   -6.7841653
   106.8725049   -6.7837825
   106.8590125   -6.7789798
   106.8438028   -6.7777036
   106.8358460   -6.7708746
   106.8310356   -6.7691304
   106.8227895   -6.7715987
   106.8137190   -6.7704946
   106.8004705   -6.7643945
   106.7961785   -6.7565912
   106.7930842   -6.7548003
   106.7869213   -6.7579319
   106.7768573   -6.7566298
   106.7625934   -6.7494101
   106.7539860   -6.7370713
   106.7476701   -6.7316635
   106.7403877   -6.7173300
   106.7331714   -6.7176317
   106.7261904   -6.7201665
   106.7150931   -6.7307516
   106.7048582   -6.7346238
   106.7008842   -6.7431070
   106.6941013   -6.7467878
   106.6824438   -6.7478324
   106.6748741   -6.7400404
   106.6727571   -6.7350745
   106.6672775   -6.7386096
   106.6600919   -6.7340360
   106.6580203   -6.7396468
   106.6596519   -6.7454219
   106.6573699   -6.7492535
   106.6544094   -6.7507149
   106.6438193   -6.7508217
   106.6327351   -6.7569684
   106.6301770   -6.7566423
   106.6286572   -6.7540854
   106.6224781   -6.7509330
   106.5987950   -6.7507766
   106.5878146   -6.7453717
   106.5828191   -6.7377686
   106.5809175   -6.7226720
   106.5769571   -6.7194718
   106.5751866   -6.7218941
   106.5701601   -6.7239108
   106.5682905   -6.7288293
   106.5625472   -6.7344837
   106.5615980   -6.7393972
   106.5484035   -6.7535161
   106.5320192   -6.7567657
   106.5266425   -6.7603962
   106.5252995   -6.7642879
   106.5193522   -6.7635282
   106.4977608   -6.7540359
   106.4757669   -6.7541550
   106.4657256   -6.7527082
   106.4640401   -6.7505167
   106.4639836   -6.7444690
   106.4617293   -6.7380489
   106.4524317   -6.7320417
   106.4488726   -6.7275015
   106.4496258   -6.7141095
   106.4467750   -6.7066746
   106.4344311   -6.6960103
   106.4275076   -6.6823574
   106.4270570   -6.6728244
   106.4295712   -6.6530465
   106.4279886   -6.6440120
   106.4289893   -6.6227080
   106.4267484   -6.6188733
   106.4244734   -6.6063641
   106.4276472   -6.5938131
   106.4279889   -6.5801501
   106.4235143   -6.5693326
   106.4185677   -6.5672956
   106.4152652   -6.5631383
   106.4149332   -6.5588282
   106.4201289   -6.5506457
   106.4157238   -6.5454713
   106.4098311   -6.5316022
   106.4061100   -6.5282380
   106.4018394   -6.5171619
   106.4044495   -6.4951529
   106.4039977   -6.4811558
   106.4090334   -6.4753206
   106.4098251   -6.4682173
   106.4074458   -6.4634431
   106.3992415   -6.4554344
END
END
